<?xml version="1.0" encoding="utf-8"?>
<!-- Generator: Adobe Illustrator 25.2.3, SVG Export Plug-In . SVG Version: 6.00 Build 0)  -->
<svg version="1.1" id="Calque_1" xmlns="http://www.w3.org/2000/svg" xmlns:xlink="http://www.w3.org/1999/xlink" x="0px" y="0px"
	 viewBox="0 0 1080 435" style="enable-background:new 0 0 1080 435;" xml:space="preserve">
<style type="text/css">
	.st0{fill:#23AAE5;}
	.st1{fill:#FFFFFF;}
</style>
<g>
	<g>
		<path class="st0" d="M239.6,398.1c0,5.1-1.8,9.1-5.3,11.9c-3.5,2.8-8.5,4.2-15.1,4.2h-6v20h-5.9v-50.8h13.2
			C233.3,383.3,239.6,388.2,239.6,398.1z M213.3,409h5.3c5.2,0,9-0.8,11.4-2.5c2.3-1.7,3.5-4.4,3.5-8.1c0-3.4-1.1-5.9-3.3-7.5
			c-2.2-1.6-5.6-2.5-10.3-2.5h-6.6V409z"/>
		<path class="st0" d="M265.5,434.8c-5.6,0-10.1-1.7-13.3-5.1c-3.3-3.4-4.9-8.2-4.9-14.3c0-6.1,1.5-11,4.5-14.6
			c3-3.6,7.1-5.4,12.2-5.4c4.8,0,8.6,1.6,11.3,4.7c2.8,3.1,4.2,7.3,4.2,12.4v3.6h-26.3c0.1,4.5,1.3,7.9,3.4,10.2
			c2.1,2.3,5.2,3.5,9.1,3.5c4.1,0,8.2-0.9,12.2-2.6v5.1c-2,0.9-4,1.5-5.8,1.9C270.3,434.6,268.1,434.8,265.5,434.8z M263.9,400.1
			c-3.1,0-5.5,1-7.3,3c-1.8,2-2.9,4.7-3.2,8.3h19.9c0-3.6-0.8-6.4-2.4-8.4C269.3,401.1,266.9,400.1,263.9,400.1z"/>
		<path class="st0" d="M306.7,395.3c1.7,0,3.2,0.1,4.5,0.4l-0.8,5.4c-1.6-0.3-3-0.5-4.2-0.5c-3.1,0-5.7,1.3-7.9,3.8
			c-2.2,2.5-3.3,5.6-3.3,9.4v20.4h-5.8V396h4.8l0.7,7.1h0.3c1.4-2.5,3.1-4.4,5.1-5.7C302.2,396,304.4,395.3,306.7,395.3z"/>
		<path class="st0" d="M335.6,400.5h-9.7v33.6h-5.8v-33.6h-6.8v-2.6l6.8-2.1v-2.1c0-9.4,4.1-14,12.3-14c2,0,4.4,0.4,7.1,1.2
			l-1.5,4.6c-2.2-0.7-4.1-1.1-5.7-1.1c-2.2,0-3.8,0.7-4.8,2.2c-1,1.5-1.6,3.8-1.6,7v2.5h9.7V400.5z"/>
		<path class="st0" d="M375.4,415c0,6.2-1.6,11.1-4.7,14.6c-3.1,3.5-7.5,5.2-13,5.2c-3.4,0-6.4-0.8-9.1-2.4
			c-2.6-1.6-4.7-3.9-6.1-6.9c-1.4-3-2.2-6.5-2.2-10.5c0-6.2,1.6-11,4.7-14.5c3.1-3.5,7.4-5.2,12.9-5.2c5.3,0,9.6,1.8,12.7,5.3
			C373.9,404.2,375.4,409,375.4,415z M346.4,415c0,4.9,1,8.6,2.9,11.1c1.9,2.6,4.8,3.8,8.6,3.8s6.6-1.3,8.6-3.8
			c2-2.5,2.9-6.2,2.9-11.1c0-4.8-1-8.5-2.9-11c-2-2.5-4.8-3.8-8.7-3.8c-3.8,0-6.6,1.2-8.6,3.7C347.4,406.4,346.4,410.1,346.4,415z"
			/>
		<path class="st0" d="M402.9,395.3c1.7,0,3.2,0.1,4.5,0.4l-0.8,5.4c-1.6-0.3-3-0.5-4.2-0.5c-3.1,0-5.7,1.3-7.9,3.8
			c-2.2,2.5-3.3,5.6-3.3,9.4v20.4h-5.8V396h4.8l0.7,7.1h0.3c1.4-2.5,3.1-4.4,5.1-5.7C398.4,396,400.6,395.3,402.9,395.3z"/>
		<path class="st0" d="M463.2,434.1v-24.8c0-3-0.7-5.3-1.9-6.8c-1.3-1.5-3.3-2.3-6.1-2.3c-3.6,0-6.2,1-8,3.1
			c-1.7,2.1-2.6,5.2-2.6,9.5v21.3h-5.8v-24.8c0-3-0.6-5.3-1.9-6.8c-1.3-1.5-3.3-2.3-6.1-2.3c-3.6,0-6.3,1.1-7.9,3.2
			c-1.7,2.2-2.5,5.7-2.5,10.7v20h-5.8V396h4.7l0.9,5.2h0.3c1.1-1.9,2.6-3.3,4.6-4.3c2-1.1,4.2-1.6,6.7-1.6c6,0,9.9,2.2,11.7,6.5h0.3
			c1.1-2,2.8-3.6,4.9-4.7c2.2-1.2,4.6-1.7,7.4-1.7c4.3,0,7.5,1.1,9.7,3.3c2.1,2.2,3.2,5.8,3.2,10.6v24.9H463.2z"/>
		<path class="st0" d="M504.3,434.1l-1.1-5.4h-0.3c-1.9,2.4-3.8,4-5.7,4.8c-1.9,0.8-4.2,1.3-7.1,1.3c-3.8,0-6.7-1-8.9-2.9
			c-2.1-1.9-3.2-4.7-3.2-8.3c0-7.7,6.1-11.7,18.5-12.1l6.5-0.2v-2.4c0-3-0.6-5.2-1.9-6.6c-1.3-1.4-3.3-2.1-6.2-2.1
			c-3.2,0-6.8,1-10.8,2.9l-1.8-4.4c1.9-1,3.9-1.8,6.2-2.4c2.2-0.6,4.5-0.9,6.7-0.9c4.5,0,7.9,1,10.1,3c2.2,2,3.3,5.2,3.3,9.7v26
			H504.3z M491.2,430c3.6,0,6.4-1,8.5-3c2-2,3.1-4.7,3.1-8.3v-3.4l-5.8,0.2c-4.6,0.2-7.9,0.9-9.9,2.1c-2,1.3-3,3.2-3,5.9
			c0,2.1,0.6,3.7,1.9,4.8S489,430,491.2,430z"/>
		<path class="st0" d="M546.5,434.1v-24.7c0-3.1-0.7-5.4-2.1-7c-1.4-1.5-3.6-2.3-6.6-2.3c-4,0-6.9,1.1-8.8,3.2s-2.8,5.7-2.8,10.7v20
			h-5.8V396h4.7l0.9,5.2h0.3c1.2-1.9,2.8-3.3,5-4.4c2.1-1,4.5-1.5,7.1-1.5c4.6,0,8,1.1,10.4,3.3c2.3,2.2,3.5,5.8,3.5,10.6v24.9
			H546.5z"/>
		<path class="st0" d="M579.4,434.8c-5.5,0-9.8-1.7-12.8-5.1c-3-3.4-4.5-8.2-4.5-14.4c0-6.4,1.5-11.3,4.6-14.8s7.5-5.2,13.1-5.2
			c1.8,0,3.7,0.2,5.5,0.6c1.8,0.4,3.3,0.9,4.3,1.4l-1.8,4.9c-1.3-0.5-2.7-0.9-4.2-1.3s-2.8-0.5-4-0.5c-7.7,0-11.6,4.9-11.6,14.8
			c0,4.7,1,8.3,2.8,10.8c1.9,2.5,4.7,3.8,8.4,3.8c3.2,0,6.4-0.7,9.8-2v5.1C586.5,434.1,583.3,434.8,579.4,434.8z"/>
		<path class="st0" d="M614.1,434.8c-5.6,0-10.1-1.7-13.3-5.1c-3.3-3.4-4.9-8.2-4.9-14.3c0-6.1,1.5-11,4.5-14.6
			c3-3.6,7.1-5.4,12.2-5.4c4.8,0,8.6,1.6,11.3,4.7c2.8,3.1,4.2,7.3,4.2,12.4v3.6h-26.3c0.1,4.5,1.3,7.9,3.4,10.2
			c2.1,2.3,5.2,3.5,9.1,3.5c4.1,0,8.2-0.9,12.2-2.6v5.1c-2,0.9-4,1.5-5.8,1.9C618.9,434.6,616.7,434.8,614.1,434.8z M612.6,400.1
			c-3.1,0-5.5,1-7.3,3c-1.8,2-2.9,4.7-3.2,8.3H622c0-3.6-0.8-6.4-2.4-8.4C617.9,401.1,615.6,400.1,612.6,400.1z"/>
		<path class="st1" d="M672.6,434.8c-5.6,0-10.1-1.7-13.3-5.1c-3.3-3.4-4.9-8.2-4.9-14.3c0-6.1,1.5-11,4.5-14.6
			c3-3.6,7.1-5.4,12.2-5.4c4.8,0,8.6,1.6,11.3,4.7c2.8,3.1,4.2,7.3,4.2,12.4v3.6h-26.3c0.1,4.5,1.3,7.9,3.4,10.2
			c2.1,2.3,5.2,3.5,9.1,3.5c4.1,0,8.2-0.9,12.2-2.6v5.1c-2,0.9-4,1.5-5.8,1.9C677.4,434.6,675.2,434.8,672.6,434.8z M671,400.1
			c-3.1,0-5.5,1-7.3,3c-1.8,2-2.9,4.7-3.2,8.3h19.9c0-3.6-0.8-6.4-2.4-8.4C676.4,401.1,674,400.1,671,400.1z"/>
		<path class="st1" d="M693.3,417.6v-5.3h17.1v5.3H693.3z"/>
		<path class="st1" d="M742,387.8c-5.6,0-10,1.9-13.2,5.6c-3.2,3.7-4.9,8.8-4.9,15.3c0,6.6,1.6,11.8,4.7,15.4
			c3.1,3.6,7.6,5.4,13.3,5.4c3.5,0,7.6-0.6,12.1-1.9v5.2c-3.5,1.3-7.9,2-13,2c-7.5,0-13.3-2.3-17.3-6.8c-4.1-4.5-6.1-11-6.1-19.4
			c0-5.2,1-9.8,2.9-13.8c2-3.9,4.8-7,8.5-9.1c3.7-2.1,8.1-3.2,13.1-3.2c5.3,0,10,1,14,2.9l-2.5,5.1
			C749.7,388.7,745.8,387.8,742,387.8z"/>
		<path class="st1" d="M797.2,415c0,6.2-1.6,11.1-4.7,14.6c-3.1,3.5-7.5,5.2-13,5.2c-3.4,0-6.4-0.8-9.1-2.4
			c-2.6-1.6-4.7-3.9-6.1-6.9c-1.4-3-2.2-6.5-2.2-10.5c0-6.2,1.6-11,4.7-14.5c3.1-3.5,7.4-5.2,12.9-5.2c5.3,0,9.6,1.8,12.7,5.3
			C795.6,404.2,797.2,409,797.2,415z M768.1,415c0,4.9,1,8.6,2.9,11.1c1.9,2.6,4.8,3.8,8.6,3.8s6.6-1.3,8.6-3.8
			c2-2.5,2.9-6.2,2.9-11.1c0-4.8-1-8.5-2.9-11c-2-2.5-4.8-3.8-8.7-3.8c-3.8,0-6.6,1.2-8.6,3.7C769.1,406.4,768.1,410.1,768.1,415z"
			/>
		<path class="st1" d="M855.9,434.1v-24.8c0-3-0.7-5.3-1.9-6.8c-1.3-1.5-3.3-2.3-6.1-2.3c-3.6,0-6.2,1-8,3.1s-2.6,5.2-2.6,9.5v21.3
			h-5.8v-24.8c0-3-0.6-5.3-1.9-6.8s-3.3-2.3-6.1-2.3c-3.6,0-6.3,1.1-7.9,3.2c-1.7,2.2-2.5,5.7-2.5,10.7v20h-5.8V396h4.7l0.9,5.2h0.3
			c1.1-1.9,2.6-3.3,4.6-4.3c2-1.1,4.2-1.6,6.7-1.6c6,0,9.9,2.2,11.7,6.5h0.3c1.1-2,2.8-3.6,4.9-4.7c2.2-1.2,4.6-1.7,7.4-1.7
			c4.3,0,7.5,1.1,9.7,3.3c2.1,2.2,3.2,5.8,3.2,10.6v24.9H855.9z"/>
		<path class="st1" d="M922.1,434.1v-24.8c0-3-0.7-5.3-1.9-6.8c-1.3-1.5-3.3-2.3-6.1-2.3c-3.6,0-6.2,1-8,3.1s-2.6,5.2-2.6,9.5v21.3
			h-5.8v-24.8c0-3-0.6-5.3-1.9-6.8s-3.3-2.3-6.1-2.3c-3.6,0-6.3,1.1-7.9,3.2c-1.7,2.2-2.5,5.7-2.5,10.7v20h-5.8V396h4.7l0.9,5.2h0.3
			c1.1-1.9,2.6-3.3,4.6-4.3c2-1.1,4.2-1.6,6.7-1.6c6,0,9.9,2.2,11.7,6.5h0.3c1.1-2,2.8-3.6,4.9-4.7c2.2-1.2,4.6-1.7,7.4-1.7
			c4.3,0,7.5,1.1,9.7,3.3c2.1,2.2,3.2,5.8,3.2,10.6v24.9H922.1z"/>
		<path class="st1" d="M955.8,434.8c-5.6,0-10.1-1.7-13.3-5.1c-3.3-3.4-4.9-8.2-4.9-14.3c0-6.1,1.5-11,4.5-14.6
			c3-3.6,7.1-5.4,12.2-5.4c4.8,0,8.6,1.6,11.3,4.7c2.8,3.1,4.2,7.3,4.2,12.4v3.6h-26.3c0.1,4.5,1.3,7.9,3.4,10.2
			c2.1,2.3,5.2,3.5,9.1,3.5c4.1,0,8.2-0.9,12.2-2.6v5.1c-2,0.9-4,1.5-5.8,1.9C960.6,434.6,958.4,434.8,955.8,434.8z M954.3,400.1
			c-3.1,0-5.5,1-7.3,3c-1.8,2-2.9,4.7-3.2,8.3h19.9c0-3.6-0.8-6.4-2.4-8.4C959.6,401.1,957.3,400.1,954.3,400.1z"/>
		<path class="st1" d="M997.1,395.3c1.7,0,3.2,0.1,4.5,0.4l-0.8,5.4c-1.6-0.3-3-0.5-4.2-0.5c-3.1,0-5.7,1.3-7.9,3.8
			c-2.2,2.5-3.3,5.6-3.3,9.4v20.4h-5.8V396h4.8l0.7,7.1h0.3c1.4-2.5,3.1-4.4,5.1-5.7C992.5,396,994.7,395.3,997.1,395.3z"/>
		<path class="st1" d="M1024,434.8c-5.5,0-9.8-1.7-12.8-5.1c-3-3.4-4.5-8.2-4.5-14.4c0-6.4,1.5-11.3,4.6-14.8
			c3.1-3.5,7.5-5.2,13.1-5.2c1.8,0,3.7,0.2,5.5,0.6c1.8,0.4,3.3,0.9,4.3,1.4l-1.8,4.9c-1.3-0.5-2.7-0.9-4.2-1.3s-2.8-0.5-4-0.5
			c-7.7,0-11.6,4.9-11.6,14.8c0,4.7,1,8.3,2.8,10.8c1.9,2.5,4.7,3.8,8.4,3.8c3.2,0,6.4-0.7,9.8-2v5.1
			C1031.1,434.1,1027.9,434.8,1024,434.8z"/>
		<path class="st1" d="M1058.7,434.8c-5.6,0-10.1-1.7-13.3-5.1c-3.3-3.4-4.9-8.2-4.9-14.3c0-6.1,1.5-11,4.5-14.6
			c3-3.6,7.1-5.4,12.2-5.4c4.8,0,8.6,1.6,11.3,4.7c2.8,3.1,4.2,7.3,4.2,12.4v3.6h-26.3c0.1,4.5,1.3,7.9,3.4,10.2
			c2.1,2.3,5.2,3.5,9.1,3.5c4.1,0,8.2-0.9,12.2-2.6v5.1c-2,0.9-4,1.5-5.8,1.9C1063.5,434.6,1061.3,434.8,1058.7,434.8z
			 M1057.2,400.1c-3.1,0-5.5,1-7.3,3c-1.8,2-2.9,4.7-3.2,8.3h19.9c0-3.6-0.8-6.4-2.4-8.4S1060.2,400.1,1057.2,400.1z"/>
	</g>
	<g>
		<g>
			<path class="st1" d="M335.5,154c-2.9-3.2-2.9-8,0.1-11.2l145-133.1c0.7-0.7,0.4-1.5,0.3-1.9c-0.1-0.3-0.6-1-1.6-1h-66.5
				c-0.5,0-1,0.2-1.3,0.6L286.4,123.3c-13.1,14.6-13.2,36.8-0.2,51.6l122.2,123.4h67.4c1,0,1.5-0.7,1.6-1s0.4-1.1-0.3-1.9L335.5,154
				z"/>
			<path class="st1" d="M620,0.2c-50,0-88.1,13-113.4,38.8c-25.1,25.6-37.9,64-37.9,114.3c0,100.1,48.7,153.1,140.8,153.1
				c49.7,0,87.6-13,112.8-38.8c25.1-25.6,37.8-64.1,37.8-114.3c0-50.2-11.9-88.7-35.3-114.3C701.3,13.2,666,0.2,620,0.2z
				 M613.2,258.9c-56.3,0-83.6-34.8-83.6-106.3c0-70.7,28.2-105.1,86.1-105.1c56.3,0,83.6,34.4,83.6,105.1
				C699.3,224.2,671.1,258.9,613.2,258.9z"/>
			<path class="st0" d="M1076.5,6h-183c-1.6,0-2.8-0.2-3.9,0.4c-0.7,0.3-0.8,0.8-0.9,1.2c0,0.3,0,1,0.8,1.4
				c20.6,9.2,48.3,23.4,70.4,40.1c1.6,1.2,3.6,1.9,5.6,1.9h54.3c4.3,0,7.9,3.5,7.9,7.9v50.1c0,1.6,0.6,3.2,1.6,4.4
				c17.9,21.2,30.3,43.2,41.3,62.6c2.4,4.2,4.7,8.3,7,12.3c0.4,0.7,1,0.7,1.4,0.6c0.3-0.1,0.9-0.3,1-1.1l0-0.3V10.3
				C1080,6.7,1077.6,6.1,1076.5,6z"/>
			<path class="st1" d="M1068.6,238.5c-10.7-24.2-24-46-39.4-67.5v0c-0.8-1.1-1.9-0.9-2.3-0.8c-0.3,0.1-1.5,0.5-1.6,2
				c-4.6,58.5-33.3,86.8-85.4,86.8c-56.3,0-83.6-34.8-83.6-106.3c0-48.7,13.3-79.7,40.7-94.8L901,56c1.9-0.8,2.1-3.5,0.4-4.6
				c-9-5.9-31.8-18.9-49.2-26c-2.4-1-7.4,3.3-7.4,3.3l0,0c-4.1,3.2-8,6.6-11.6,10.2c-25.1,25.6-37.9,64-37.9,114.3
				c0,100.1,48.7,153.1,140.8,153.1c49.7,0,87.6-13,112.8-38.8c7.6-7.7,14.1-16.9,19.5-27.1C1068.8,239.9,1068.8,239.1,1068.6,238.5
				z"/>
			<path class="st1" d="M267.4,6.3h-51.2c-1.1,0-2,0.9-2,2v34.6h0.1v143.5c0,24-5.4,40.2-16.3,51.7c-12.1,12.8-33.1,17.1-60.8,17.1
				c-0.8,0-1.7,0-2.5,0c-0.8,0-1.7,0-2.5,0c-27.7,0-48.7-4.4-60.8-17.1c-10.8-11.4-16.3-27.7-16.3-51.7V42.8h0.1V8.3
				c0-1.1-0.9-2-2-2H2c-1.1,0-2,0.9-2,2v177.3c0,40.2,10.4,70.9,31,91.1c20.5,20.2,54.3,30.5,101.2,30.5c0.8,0,1.7,0,2.5,0
				c0.8,0,1.7,0,2.5,0c47,0,80.7-10.3,101.2-30.5c20.6-20.3,31-50.9,31-91.1V8.3C269.4,7.2,268.5,6.3,267.4,6.3z"/>
		</g>
	</g>
</g>
</svg>
